<svg width="943" height="796" viewBox="0 0 943 796" fill="none" xmlns="http://www.w3.org/2000/svg">
<g clip-path="url(#clip0_301_1084)">
<path d="M768 384C768 395.18 767.53 406.247 766.59 417.2C765.85 425.75 764.84 434.223 763.56 442.62C762.2 451.51 760.533 460.293 758.56 468.97V468.98C757.27 474.69 755.853 480.353 754.31 485.97C749.832 502.298 744.263 518.308 737.64 533.89C736.2 537.28 734.713 540.647 733.18 543.99C727.378 556.652 720.881 568.984 713.72 580.93C693.636 614.477 668.566 644.773 639.37 670.78C636.21 673.59 633.007 676.353 629.76 679.07C560.826 736.655 473.822 768.138 384 768C171.92 768 0 596.08 0 384C0 171.92 171.92 -1.26686e-05 384 -1.26686e-05C470.729 -0.136764 554.927 29.2199 622.77 83.25C625.95 85.7699 629.09 88.3466 632.19 90.98C647.318 103.81 661.436 117.784 674.42 132.78H674.43C734.904 202.49 768.137 291.714 768 384V384Z" fill="#F2F2F2"/>
<path d="M113.356 450.331C76.7759 428.559 49.1664 387.871 52.7508 345.453C86.1943 377.462 129.882 396.609 176.084 399.508C193.906 400.561 213.838 399.877 226.957 411.986C235.121 419.521 238.921 430.864 239.544 441.955C240.167 453.047 237.945 464.079 235.735 474.966L236.495 477.632C193.927 477.792 149.937 472.103 113.356 450.331Z" fill="#E6E6E6"/>
<path d="M53.6427 345.407C68.2996 377.45 92.68 404.059 123.321 421.456C129.908 425.143 136.911 428.31 144.353 429.779C151.618 431.155 159.119 430.561 166.076 428.058C172.611 425.854 179.039 422.844 185.995 422.267C193.327 421.659 200.115 424.487 205.448 429.442C211.973 435.504 215.931 443.549 219.528 451.551C223.522 460.435 227.529 469.727 235.187 476.116C236.114 476.89 234.859 478.284 233.933 477.511C220.61 466.395 218.436 447.779 207.786 434.688C202.817 428.579 195.977 423.931 187.851 424.053C180.745 424.16 174.113 427.259 167.517 429.548C160.59 431.951 153.651 433.079 146.339 432.022C138.858 430.941 131.717 428.041 125.064 424.538C110.038 416.483 96.3717 406.116 84.5661 393.815C71.0145 379.852 59.9515 363.673 51.8555 345.979C51.3549 344.884 53.1453 344.319 53.6427 345.407H53.6427Z" fill="white"/>
<path d="M113.125 416.435C109.508 421.18 104.322 424.484 98.4942 425.759C92.666 427.033 86.5745 426.194 81.3077 423.392C80.244 422.821 81.0809 421.141 82.146 421.713C87.0456 424.331 92.7199 425.112 98.1447 423.914C103.57 422.717 108.388 419.619 111.729 415.181C112.457 414.218 113.848 415.477 113.125 416.435L113.125 416.435Z" fill="white"/>
<path d="M162.911 429.612C161.389 417.512 155.362 406.43 146.032 398.576C145.107 397.799 146.362 396.404 147.286 397.18C156.979 405.372 163.228 416.917 164.784 429.512C164.932 430.713 163.057 430.806 162.911 429.612V429.612Z" fill="white"/>
<path d="M73.3409 378.972C75.1229 377.428 76.4934 375.465 77.3293 373.26C78.1653 371.056 78.4406 368.678 78.1305 366.34C77.9678 365.142 79.8424 365.05 80.004 366.24C80.3346 368.824 80.0274 371.45 79.1092 373.888C78.1909 376.326 76.6896 378.502 74.7365 380.226C74.566 380.404 74.3341 380.51 74.0881 380.523C73.842 380.536 73.6001 380.455 73.4117 380.297C73.2277 380.13 73.1171 379.897 73.1039 379.649C73.0906 379.401 73.1758 379.158 73.3409 378.972V378.972Z" fill="white"/>
<path d="M171.159 263.275C171.282 264.021 171.405 264.766 171.542 265.518C173.245 275.529 175.759 285.385 179.059 294.989C179.302 295.735 179.56 296.488 179.824 297.226C188.02 320.279 200.425 341.61 216.408 360.134C222.774 367.5 229.692 374.37 237.101 380.686C247.334 389.408 259.123 398.051 265.684 409.312C266.381 410.48 267.006 411.689 267.554 412.933L239.69 476.498C239.554 476.61 239.432 476.73 239.296 476.843L238.3 479.432C237.895 479.133 237.481 478.814 237.076 478.515C236.841 478.343 236.611 478.156 236.376 477.983C236.221 477.864 236.066 477.744 235.919 477.645C235.867 477.605 235.816 477.565 235.778 477.532C235.632 477.433 235.506 477.325 235.374 477.233C233.057 475.457 230.75 473.661 228.45 471.847C228.436 471.84 228.436 471.84 228.428 471.82C210.943 457.948 194.464 442.494 180.853 425.031C180.444 424.505 180.02 423.974 179.623 423.419C173.532 415.513 168.097 407.123 163.373 398.332C160.801 393.51 158.476 388.56 156.405 383.503C151.079 370.426 147.843 356.592 146.816 342.509C144.773 314.434 151.732 286.018 169.765 264.877C170.227 264.337 170.683 263.81 171.159 263.275Z" fill="#E6E6E6"/>
<path d="M171.903 263.772C164.314 298.18 167.76 334.105 181.751 366.443C184.79 373.353 188.475 380.098 193.532 385.752C198.505 391.224 204.851 395.266 211.914 397.456C218.458 399.631 225.403 401.097 231.304 404.825C237.525 408.754 241.241 415.099 242.516 422.266C244.077 431.034 242.393 439.841 240.447 448.396C238.287 457.894 235.893 467.725 238.16 477.437C238.435 478.614 236.593 478.971 236.319 477.796C232.374 460.9 241.846 444.727 241.225 427.862C240.935 419.993 238.273 412.163 231.711 407.369C225.972 403.176 218.812 401.658 212.167 399.513C205.19 397.261 198.97 393.985 193.767 388.738C188.446 383.371 184.49 376.756 181.287 369.954C174.139 354.476 169.469 337.97 167.449 321.041C165.035 301.733 165.943 282.154 170.132 263.152C170.391 261.976 172.161 262.603 171.903 263.772V263.772Z" fill="white"/>
<path d="M176.633 356.296C170.889 357.906 164.759 357.423 159.338 354.931C153.917 352.44 149.559 348.102 147.041 342.694C146.535 341.598 148.214 340.76 148.721 341.858C151.056 346.899 155.117 350.938 160.169 353.248C165.222 355.558 170.934 355.986 176.274 354.454C177.435 354.123 177.787 355.966 176.633 356.296H176.633Z" fill="white"/>
<path d="M208.451 396.791C214.52 386.213 216.38 373.736 213.659 361.848C213.389 360.67 215.231 360.313 215.501 361.489C218.309 373.865 216.347 386.846 210.007 397.839C209.402 398.887 207.849 397.833 208.451 396.791Z" fill="white"/>
<path d="M167.423 302.43C169.776 302.27 172.052 301.528 174.046 300.271C176.041 299.014 177.693 297.281 178.853 295.228C179.444 294.174 180.996 295.229 180.409 296.277C179.117 298.539 177.291 300.45 175.09 301.844C172.889 303.238 170.38 304.071 167.782 304.272C167.539 304.311 167.29 304.257 167.086 304.119C166.881 303.981 166.737 303.771 166.682 303.531C166.636 303.287 166.688 303.034 166.826 302.828C166.965 302.622 167.18 302.479 167.423 302.43V302.43Z" fill="white"/>
<path d="M266 89.0001L313 639.192L219 646.26V96.0001C230.201 88.5884 246.28 87.4288 266 89.0001Z" fill="#CCCCCC"/>
<path d="M498 89.0001L451 639.192L545 646.26V96.0001C533.799 88.5884 517.72 87.4288 498 89.0001Z" fill="#CCCCCC"/>
<path d="M530.925 669H232.075C227.283 668.994 222.688 667.088 219.3 663.7C215.911 660.311 214.005 655.717 214 650.925V104.075C214.005 99.2827 215.912 94.6885 219.3 91.3C222.688 87.9115 227.283 86.0055 232.075 86H530.925C535.717 86.0055 540.312 87.9115 543.7 91.3C547.088 94.6885 548.995 99.2827 549 104.075V650.925C548.995 655.717 547.089 660.311 543.7 663.7C540.312 667.088 535.717 668.994 530.925 669V669ZM232.075 92C228.873 92.0035 225.804 93.2768 223.541 95.5405C221.277 97.8042 220.004 100.873 220 104.075V650.925C220.004 654.126 221.277 657.195 223.54 659.459C225.804 661.723 228.873 662.996 232.075 663H530.925C534.127 662.996 537.196 661.723 539.46 659.459C541.723 657.195 542.996 654.126 543 650.925V104.075C542.996 100.873 541.723 97.8042 539.459 95.5405C537.196 93.2768 534.127 92.0036 530.925 92L232.075 92Z" fill="#CCCCCC"/>
<path d="M546 177H217V183H546V177Z" fill="#CCCCCC"/>
<path d="M546 277H217V283H546V277Z" fill="#CCCCCC"/>
<path d="M323.764 89H317.764V362H323.764V89Z" fill="#CCCCCC"/>
<path d="M445.236 89H439.236V362H445.236V89Z" fill="#CCCCCC"/>
<path d="M583.5 685.5H189.5C182.339 685.5 175.472 682.655 170.408 677.592C165.345 672.528 162.5 665.661 162.5 658.5C162.5 651.339 165.345 644.472 170.408 639.408C175.472 634.345 182.339 631.5 189.5 631.5H583.5C590.661 631.5 597.528 634.345 602.592 639.408C607.655 644.472 610.5 651.339 610.5 658.5C610.5 665.661 607.655 672.528 602.592 677.592C597.528 682.655 590.661 685.5 583.5 685.5V685.5Z" fill="#CCCCCC"/>
<path d="M546 348H219V368H546V348Z" fill="#CCCCCC"/>
<path d="M324.695 411.651L324.28 411.451C301.988 400.682 272.797 400.692 229.627 411.486L229.166 411.601L229.027 411.146C224.461 396.172 219.287 379.212 229.006 370.868C229.142 346.382 250.62 326.5 277.002 326.5C303.378 326.5 324.853 346.372 324.997 370.851C339.454 381.905 332.564 398.239 324.928 411.253L324.695 411.651Z" fill="#2F2E41"/>
<path d="M461.706 359.22C461.306 361.204 460.477 363.076 459.275 364.705C458.074 366.334 456.529 367.679 454.752 368.647C452.974 369.614 451.006 370.18 448.985 370.304C446.965 370.429 444.943 370.109 443.059 369.367L364.282 448.532L357.253 423.951L435.494 350.436C436.95 347.355 439.486 344.915 442.62 343.579C445.755 342.243 449.271 342.103 452.502 343.185C455.733 344.268 458.454 346.498 460.151 349.454C461.847 352.409 462.4 355.884 461.706 359.22L461.706 359.22Z" fill="#FFB6B6"/>
<path d="M267.008 435.432C267.008 435.432 259.861 451.629 277.497 461.617C295.132 471.606 356.769 457.806 366.771 455.879C376.772 453.952 414.126 398.052 414.126 398.052L408.844 370.637L359.304 413.642L267.008 435.432Z" fill="#1DAF68"/>
<path d="M254 525L255 544C255 544 252.049 560.831 254.476 564.463C256.885 568.076 322.626 568.533 322.626 568.533C322.626 568.533 326.97 545.116 330.712 524.62L254 525Z" fill="#FFB6B6"/>
<path d="M443.014 776.221L456.758 773.445L452.824 717.931L432.54 722.028L443.014 776.221Z" fill="#FFB6B6"/>
<path d="M462.701 703.978L475.478 698.233L458.903 645.117L440.045 653.597L462.701 703.978Z" fill="#FFB6B6"/>
<path d="M473.831 674.05L449.773 687.672L390.441 592.33C348.789 620.391 308.059 633.829 267 641C253.118 643.472 238.965 642.219 236.299 628.09C236.175 627.43 236.076 626.766 236.001 626.098C234.362 610.664 253.56 590.883 256 572L308.541 568.846L315.02 577.153L375.781 539.797C388 532.285 404.072 536.348 411.677 548.873C412.079 549.534 412.452 550.212 412.796 550.906L473.831 674.05Z" fill="#2F2E41"/>
<path d="M459.106 738.187L431.578 740.745L381.665 638.664C332.169 647.177 285.475 649.904 245.086 639.606C231.411 636.168 223.052 622.048 226.416 608.069C226.573 607.415 226.755 606.769 226.961 606.129C231.795 591.381 244.448 580.946 254.417 564.725L327.234 565.831L319.101 593.893L389.837 584.74C404.062 582.899 417.054 593.196 418.855 607.738C418.95 608.506 419.012 609.277 419.041 610.051L459.106 738.187Z" fill="#2F2E41"/>
<path d="M282.432 397.138C298.762 397.138 312 383.9 312 367.57C312 351.24 298.762 338.002 282.432 338.002C266.102 338.002 252.864 351.24 252.864 367.57C252.864 383.9 266.102 397.138 282.432 397.138Z" fill="#FFB6B6"/>
<path d="M265.098 407.812L292.209 411.001C293.352 411.136 294.425 411.623 295.278 412.396C296.131 413.17 296.722 414.19 296.967 415.314L301.279 435.043L328.155 466.694C328.155 466.694 337.807 484.79 334.187 505.298C330.568 525.807 328.978 541.046 328.978 541.046C328.978 541.046 256.882 568.078 254.469 564.459C252.056 560.84 251.273 544.4 251.273 544.4L241.622 437.031C241.622 437.031 252.48 418.935 258.512 418.935C262.405 418.804 261.905 410.042 265.098 407.812Z" fill="#1DAF68"/>
<path d="M329.711 547.648C333.513 547.648 336.595 543.949 336.595 539.387C336.595 534.825 333.513 531.126 329.711 531.126C325.909 531.126 322.827 534.825 322.827 539.387C322.827 543.949 325.909 547.648 329.711 547.648Z" fill="#1DAF68"/>
<path d="M436.194 761.928L457.147 751.427L461.097 760.64L487.593 765.996C488.902 766.26 490.092 766.936 490.989 767.925C491.887 768.913 492.445 770.163 492.582 771.491C492.719 772.819 492.427 774.156 491.751 775.307C491.074 776.458 490.047 777.362 488.82 777.888L463.219 788.862L454.9 781.64L457.083 791.492L447.43 795.63L436.194 761.928Z" fill="#2F2E41"/>
<path d="M456.704 699.558L477.47 688.69L481.58 697.833L508.167 702.722C509.48 702.963 510.682 703.618 511.596 704.591C512.511 705.563 513.091 706.803 513.251 708.128C513.412 709.454 513.144 710.796 512.488 711.958C511.831 713.121 510.82 714.043 509.603 714.591L484.199 726.013L475.754 718.939L478.11 728.751L468.532 733.058L456.704 699.558Z" fill="#2F2E41"/>
<path d="M265.539 358.295C257.727 358.308 250.103 355.903 243.713 351.41L243.5 351.26V351C243.509 343.444 246.514 336.2 251.857 330.857C257.2 325.514 264.444 322.509 272 322.5H284C291.556 322.509 298.8 325.514 304.143 330.857C309.486 336.2 312.491 343.444 312.5 351C312.492 352.729 311.809 354.387 310.597 355.621C309.385 356.854 307.739 357.566 306.01 357.604L266.213 358.29C265.989 358.293 265.763 358.295 265.539 358.295Z" fill="#2F2E41"/>
<path d="M314.5 345.526C318.326 343.317 318.966 337.261 315.928 332C312.891 326.739 307.326 324.264 303.5 326.474C299.674 328.683 299.034 334.739 302.072 340C305.109 345.261 310.674 347.735 314.5 345.526Z" fill="#2F2E41"/>
<path d="M254.657 339.657C258.953 335.361 259.902 329.346 256.778 326.222C253.654 323.097 247.639 324.047 243.343 328.343C239.047 332.639 238.098 338.654 241.222 341.778C244.346 344.902 250.361 343.952 254.657 339.657Z" fill="#2F2E41"/>
<path d="M516.338 610H486.826C486.16 609.998 485.502 610.142 484.897 610.422C484.293 610.701 483.757 611.109 483.327 611.617C482.239 611.417 481.118 611.478 480.058 611.795C478.997 612.112 478.027 612.676 477.227 613.441C476.427 614.205 475.819 615.149 475.454 616.194C475.089 617.239 474.978 618.355 475.128 619.452C475.278 620.548 475.686 621.593 476.319 622.502C476.952 623.41 477.79 624.155 478.767 624.676C479.743 625.197 480.829 625.479 481.936 625.499C483.043 625.519 484.138 625.276 485.133 624.79L487.581 632.745C487.87 633.687 488.455 634.512 489.248 635.098C490.042 635.684 491.002 636 491.988 636H511.176C512.162 636 513.123 635.684 513.916 635.098C514.709 634.512 515.294 633.687 515.583 632.745L520.746 615.968C520.958 615.278 521.006 614.548 520.884 613.837C520.763 613.125 520.476 612.452 520.048 611.872C519.619 611.291 519.06 610.82 518.416 610.495C517.771 610.169 517.06 610 516.338 610V610ZM482.082 623.5C480.756 623.5 479.484 622.973 478.546 622.036C477.609 621.098 477.082 619.826 477.082 618.5C477.082 617.174 477.609 615.902 478.546 614.964C479.484 614.027 480.756 613.5 482.082 613.5C482.173 613.5 482.258 613.522 482.349 613.527C482.15 614.332 482.174 615.176 482.418 615.968L484.53 622.832C483.786 623.265 482.942 623.495 482.082 623.5V623.5Z" fill="#3F3D56"/>
<path d="M384.553 588.292C382.537 588.479 380.506 588.221 378.601 587.537C376.696 586.854 374.964 585.761 373.527 584.335C372.09 582.91 370.983 581.186 370.284 579.287C369.586 577.387 369.312 575.358 369.482 573.341L271.043 520.589L292.574 506.804L385.447 560.662C388.816 561.173 391.881 562.902 394.06 565.521C396.24 568.141 397.383 571.469 397.272 574.875C397.162 578.28 395.806 581.527 393.462 584C391.118 586.473 387.948 588.001 384.553 588.292V588.292Z" fill="#FFB6B6"/>
<path d="M255.683 423.647C255.683 423.647 238.116 421.447 233.608 441.207C229.099 460.967 260.003 516.053 264.719 525.081C269.434 534.109 333.702 553.854 333.702 553.854L358.449 540.928L303.038 505.81L255.683 423.647Z" fill="#1DAF68"/>
<path d="M379.5 342H385.5C388.417 342 391.215 343.159 393.278 345.222C395.341 347.285 396.5 350.083 396.5 353H368.5C368.5 350.083 369.659 347.285 371.722 345.222C373.785 343.159 376.583 342 379.5 342V342Z" fill="#CCCCCC"/>
<path d="M189.242 136.766C222.071 136.766 248.684 110.153 248.684 77.3237C248.684 44.4949 222.071 17.8818 189.242 17.8818C156.413 17.8818 129.8 44.4949 129.8 77.3237C129.8 110.153 156.413 136.766 189.242 136.766Z" fill="#FF8811"/>
<path d="M371.238 74.2258C355.507 57.7233 337.237 42.6687 315.609 34.7134C309.584 32.4879 303.337 30.9181 296.976 30.0311C296.925 30.0241 296.877 30.0344 296.826 30.0303C296.722 30.0036 296.617 29.983 296.511 29.9686C287.615 28.8352 278.585 29.3804 269.889 31.5758C265.637 32.6429 261.488 34.0881 257.494 35.894C253.485 37.8498 249.6 40.0512 245.862 42.4857C237.951 47.2215 229.24 50.4711 220.16 52.0743C215.602 52.8949 210.986 53.3479 206.355 53.4292C202.337 53.5098 198.548 53.6493 194.742 55.1008C190.676 56.6299 187.023 59.0882 184.076 62.2796C181.128 65.471 178.968 69.3071 177.766 73.4818C177.673 73.8536 177.701 74.2452 177.846 74.6001C177.99 74.9549 178.244 75.2548 178.569 75.4562C179.599 76.1937 180.603 77.0304 181.685 77.6875C182.647 78.128 183.675 78.4083 184.728 78.5175C186.448 78.8804 188.17 79.2327 189.895 79.5745C196.247 80.8332 202.627 81.9474 209.032 82.9171C221.994 84.8792 235.025 86.2614 248.126 87.0635C274.372 88.6533 300.708 87.8618 326.812 84.6987C341.482 82.9218 356.052 80.4017 370.467 77.1479C370.759 77.0626 371.024 76.9033 371.236 76.6855C371.448 76.4677 371.6 76.1988 371.678 75.9048C371.755 75.6108 371.756 75.3017 371.679 75.0075C371.602 74.7134 371.45 74.4441 371.238 74.2258V74.2258Z" fill="#E6E6E6"/>
<path d="M192.063 113.969C186.038 111.744 179.791 110.174 173.43 109.287C173.379 109.28 173.331 109.29 173.28 109.286C173.176 109.259 173.071 109.239 172.965 109.224C164.069 108.091 155.039 108.636 146.343 110.832C142.091 111.899 137.943 113.344 133.948 115.15C129.939 117.106 126.054 119.307 122.316 121.742C114.405 126.477 105.694 129.727 96.6138 131.33C92.056 132.151 87.4396 132.604 82.8092 132.685C78.7915 132.766 75.0025 132.905 71.1959 134.357C67.1297 135.886 63.4772 138.344 60.5298 141.535C57.5824 144.727 55.4217 148.563 54.2201 152.738C54.1275 153.109 54.1554 153.501 54.2998 153.856C54.4442 154.211 54.6977 154.511 55.0236 154.712C56.0533 155.449 57.0571 156.286 58.139 156.943C59.1014 157.384 60.1293 157.664 61.1821 157.773C62.9022 158.136 64.6244 158.489 66.3488 158.83C72.7016 160.089 79.0807 161.203 85.4863 162.173C98.4477 164.135 111.479 165.517 124.581 166.319C150.827 167.909 177.163 167.118 203.266 163.954C217.936 162.178 232.506 159.657 246.921 156.404C247.213 156.318 247.478 156.159 247.69 155.941C247.902 155.723 248.054 155.455 248.132 155.161C248.21 154.867 248.21 154.557 248.133 154.263C248.056 153.969 247.904 153.7 247.692 153.482C231.961 136.979 213.691 121.925 192.063 113.969Z" fill="#E6E6E6"/>
<path d="M620.723 557.099L575.011 497.048L538.943 517.442L615.374 608.204L620.723 557.099Z" fill="#3F3D56"/>
<path d="M726.02 459.48C727.035 484.646 730.934 509.612 737.64 533.89C736.2 537.28 734.713 540.646 733.18 543.99C727.378 556.652 720.881 568.984 713.72 580.93C693.636 614.477 668.566 644.773 639.37 670.78C636.21 673.59 633.007 676.353 629.76 679.07C611.25 653.55 601.26 625.39 597.31 596.41C596.81 592.73 596.4 589.01 596.09 585.31V585.29C595.332 576.298 595.088 567.27 595.36 558.25C595.37 557.53 595.39 556.8 595.42 556.07C595.77 546.43 596.64 536.77 597.95 527.2V527.19C598.1 526.09 598.25 524.99 598.42 523.89C598.9 520.59 599.44 517.29 600.03 514.01C603.464 495.093 608.256 476.448 614.37 458.22V458.21C614.54 457.68 614.71 457.16 614.9 456.64C615.56 454.66 616.23 452.7 616.92 450.74C616.963 450.586 617.016 450.436 617.08 450.29C617.97 447.73 618.88 445.19 619.81 442.67C620.06 441.97 620.32 441.27 620.59 440.57C621.64 437.76 622.71 434.97 623.8 432.22C624.14 431.34 624.49 430.46 624.84 429.59C625.11 428.92 625.37 428.25 625.65 427.59V427.58C627.24 423.65 628.85 419.796 630.48 416.02C635.05 405.4 639.75 395.41 644.33 386.2L644.34 386.19C663.35 348.06 680.63 323.3 680.63 323.3L745.52 344.3C737.78 358.03 731.79 378.28 728.51 402.17C725.983 421.158 725.15 440.334 726.02 459.47L726.02 459.48Z" fill="#3F3D56"/>
<path d="M618.17 453.37C617.79 452.48 617.36 451.61 616.92 450.74C614.639 446.323 611.702 442.278 608.21 438.74C607.69 438.21 607.15 437.68 606.59 437.18C600.566 431.632 593.242 427.692 585.292 425.724C577.343 423.756 569.026 423.823 561.11 425.92L561.07 425.94L560.77 426.02L560.84 426.36C561.14 427.944 561.575 429.5 562.14 431.01C562.29 431.42 562.46 431.81 562.63 432.2C562.7 432.38 562.79 432.54 562.87 432.72C562.87 432.72 562.86 432.73 562.88 432.73C562.88 432.74 562.89 432.75 562.89 432.76C563.08 433.13 563.26 433.51 563.46 433.87C563.05 433.48 562.66 433.08 562.28 432.67C561.91 432.29 561.57 431.89 561.23 431.49C560.064 430.131 559.011 428.679 558.08 427.15L557.92 426.88L557.64 426.99C553.866 428.298 550.266 430.061 546.92 432.24L546.56 432.48C544.005 434.158 541.125 435.279 538.109 435.772C535.092 436.265 532.006 436.117 529.05 435.34C524.39 434.138 519.53 433.919 514.781 434.695C510.031 435.472 505.495 437.227 501.46 439.85C498.787 441.593 496.37 443.7 494.28 446.11C494.1 446.32 493.92 446.54 493.74 446.75C493.36 447.21 493 447.68 492.65 448.16C488.891 453.184 486.583 459.144 485.98 465.39L485.96 465.62L486.15 465.75C489.533 468.069 493.36 469.663 497.39 470.43C494.859 470.784 492.295 470.847 489.75 470.62H489.74C488.585 470.525 487.437 470.364 486.3 470.14L486.09 470.1H486.08L485.82 470.05L485.86 470.53C486.158 476.64 488.081 482.56 491.43 487.68L491.53 487.82C491.567 487.871 491.6 487.925 491.63 487.98C493.049 490.15 494.229 492.467 495.15 494.89C497.488 500.912 498.003 507.488 496.63 513.8C495.077 520.551 495.593 527.614 498.111 534.067C500.63 540.521 505.034 546.066 510.75 549.98C515.771 553.434 521.622 555.488 527.7 555.93C528.53 556 529.37 556.04 530.21 556.04C535.018 556.055 539.777 555.064 544.18 553.13L544.34 553.07L544.38 552.89C545.226 550.158 546.416 547.543 547.92 545.11C547.428 547.028 547.179 549 547.18 550.98V551.64L547.75 551.31C548.24 551.02 548.74 550.71 549.19 550.42C551.891 548.656 554.337 546.53 556.46 544.1C557.29 543.14 558.13 542.21 559.01 541.28L559.02 541.27C560.73 539.45 562.54 537.67 564.42 535.97C568.42 532.378 572.7 529.111 577.22 526.2C581.737 523.3 586.459 520.733 591.35 518.52H591.36C591.91 518.26 592.47 518.01 593.02 517.77C595.455 516.71 597.8 515.452 600.03 514.01C600.11 513.96 600.18 513.92 600.25 513.87C609.917 507.541 617.024 497.986 620.305 486.907C623.587 475.828 622.83 463.943 618.17 453.37L618.17 453.37Z" fill="#1DAF68"/>
<path opacity="0.15" d="M498.278 527.999C498.005 529.214 497.798 530.444 497.658 531.682C495.797 525.799 495.527 519.527 496.876 513.506C497.084 512.584 497.24 511.652 497.363 510.715C499.21 516.29 499.526 522.26 498.278 527.999Z" fill="black"/>
<path opacity="0.15" d="M499.034 484.62C496.072 485.032 493.068 485.046 490.102 484.663C489.325 483.198 488.654 481.679 488.095 480.118C491.397 482.347 495.119 483.879 499.034 484.62V484.62Z" fill="black"/>
<path opacity="0.15" d="M489.865 470.299C488.771 473.095 488.045 476.021 487.703 479.004C486.791 476.163 486.252 473.215 486.101 470.235L486.077 469.755L486.549 469.846C487.646 470.052 488.752 470.203 489.865 470.299Z" fill="black"/>
<path opacity="0.15" d="M501.718 439.553C505.748 436.926 510.282 435.168 515.029 434.391C519.777 433.613 524.634 433.834 529.292 435.037C532.249 435.819 535.338 435.969 538.356 435.477C541.375 434.985 544.256 433.862 546.812 432.182L547.173 431.944C550.516 429.759 554.114 427.992 557.887 426.682L558.175 426.582L558.333 426.842C559.824 429.308 561.632 431.569 563.709 433.568C562.447 431.217 561.563 428.683 561.091 426.057L561.022 425.711L561.364 425.621C568.788 423.656 576.572 423.474 584.081 425.09C591.589 426.706 598.609 430.074 604.568 434.92C610.527 439.766 615.255 445.951 618.368 452.973C621.481 459.994 622.89 467.651 622.48 475.321C620.905 469.068 618.105 463.19 614.242 458.028C610.379 452.865 605.53 448.521 599.975 445.246C594.421 441.971 588.272 439.831 581.885 438.95C575.497 438.069 568.998 438.465 562.765 440.113L562.424 440.204L562.492 440.55C562.965 443.175 563.848 445.71 565.11 448.06C563.033 446.062 561.226 443.801 559.734 441.335L559.576 441.075L559.288 441.174C555.516 442.485 551.918 444.252 548.574 446.437L548.213 446.675C545.657 448.355 542.776 449.478 539.758 449.97C536.739 450.462 533.65 450.312 530.694 449.53C522.952 447.522 514.754 448.26 507.496 451.62C500.238 454.98 494.371 460.754 490.894 467.957C489.346 467.213 487.845 466.374 486.401 465.446L486.205 465.322L486.228 465.092C486.725 459.945 488.376 454.976 491.058 450.554C493.74 446.133 497.383 442.373 501.718 439.553V439.553Z" fill="black"/>
<path d="M873.48 184.04L872.53 183.41L871.84 184.31C866.5 191.034 862.251 198.556 859.25 206.6C859.664 197.333 861.285 188.159 864.07 179.31L864.37 178.38L863.51 177.89C852.321 171.554 840.399 166.611 828.01 163.17L826.66 162.81C817.165 160.205 808.325 155.627 800.718 149.376C793.111 143.125 786.907 135.34 782.51 126.53C772.293 106.311 756.153 89.6879 736.244 78.8799C716.334 68.0719 693.602 63.5927 671.08 66.0401H671.07C670.83 66.0601 670.58 66.0901 670.34 66.1201C669.93 66.1601 669.53 66.2101 669.13 66.2601C668.31 66.3701 667.51 66.4801 666.71 66.6001C666.03 66.7001 665.34 66.8101 664.66 66.9301C664.3 66.9801 663.95 67.0401 663.6 67.1101C663.25 67.1701 662.89 67.2301 662.54 67.3001H662.53C655.816 68.5701 649.234 70.4616 642.87 72.9501H642.86V72.96L641.25 73.59C639.59 74.27 637.943 74.99 636.31 75.75C635.94 75.92 635.58 76.1 635.21 76.27C635.11 76.32 635 76.37 634.9 76.43C633.85 76.93 632.81 77.45 631.78 78C631.63 78.07 631.48 78.15 631.33 78.23L630.37 78.74C628.26 79.88 626.187 81.09 624.15 82.37C623.98 82.47 623.82 82.57 623.65 82.68C623.47 82.8 623.28 82.92 623.1 83.04C622.99 83.1 622.88 83.18 622.77 83.25C622.46 83.44 622.16 83.64 621.86 83.85C621.26 84.24 620.66 84.64 620.07 85.05C619.46 85.46 618.86 85.89 618.26 86.32L617.66 86.75L617.77 87.49C617.87 88.1 617.96 88.71 618.07 89.31C618.17 89.91 618.27 90.5 618.38 91.09C618.55 92.08 618.74 93.06 618.93 94.01C619.06 94.64 619.18 95.26 619.32 95.87C619.45 96.5 619.59 97.13 619.74 97.76C620.03 99.06 620.34 100.32 620.67 101.56C620.83 102.18 621 102.8 621.18 103.41C621.28 103.78 621.38 104.15 621.49 104.51C621.57 104.76 621.65 105.01 621.73 105.26C621.75 105.34 621.77 105.43 621.8 105.52C621.822 105.605 621.849 105.688 621.88 105.77C621.99 106.14 622.1 106.5 622.21 106.85C622.27 107.04 622.33 107.23 622.4 107.41C622.54 107.84 622.69 108.28 622.84 108.7C623 109.18 623.17 109.66 623.34 110.13C623.38 110.25 623.42 110.36 623.46 110.48C623.49 110.57 623.52 110.66 623.56 110.75C623.6 110.85 623.64 110.96 623.68 111.06C623.85 111.51 624.02 111.97 624.2 112.42C624.26 112.58 624.32 112.75 624.39 112.91C626.011 116.984 628.003 120.9 630.34 124.61C627.75 122.39 625.257 120.037 622.86 117.55C619.16 113.705 615.75 109.59 612.66 105.24C612.41 104.9 612.16 104.55 611.93 104.2C611.46 103.53 611 102.86 610.55 102.18C610.07 101.48 609.61 100.75 609.16 100.03C608.86 99.55 608.56 99.06 608.27 98.58C607.98 98.12 607.71 97.67 607.45 97.21L606.67 95.87H606.66V95.88L605.56 96.96C605.12 97.39 604.68 97.82 604.25 98.25C590.81 111.773 581.074 128.527 575.98 146.9L575.83 147.45L575.68 148.02C575.39 149.04 575.1 150.03 574.79 151.04V151.05C574.49 152.05 574.17 153.05 573.83 154.03C573.52 154.96 573.2 155.88 572.86 156.8C572.75 157.11 572.63 157.42 572.5 157.73C572.29 158.33 572.06 158.92 571.83 159.52C571.72 159.79 571.61 160.07 571.5 160.34C571.23 161 570.96 161.66 570.69 162.31C570.65 162.41 570.6 162.52 570.55 162.62C570.47 162.82 570.38 163.02 570.3 163.21C570.09 163.69 569.87 164.18 569.66 164.66C569.51 164.97 569.37 165.29 569.23 165.6C569.17 165.74 569.1 165.88 569.04 166.02C568.67 166.82 568.29 167.61 567.89 168.39C567.44 169.31 566.98 170.23 566.49 171.13C566.06 171.97 565.61 172.79 565.14 173.61C564.33 175.06 563.48 176.5 562.6 177.9C562.26 178.44 561.92 178.98 561.57 179.52C561.49 179.65 561.41 179.78 561.33 179.9C561.04 180.37 560.74 180.82 560.43 181.28C560.22 181.59 560.01 181.9 559.8 182.2C559.45 182.74 559.08 183.26 558.7 183.77C558.6 183.93 558.49 184.08 558.38 184.23C557.82 185.01 557.26 185.77 556.69 186.53C556.67 186.54 556.67 186.55 556.66 186.56C556.64 186.56 556.64 186.57 556.63 186.58C556.38 186.91 556.13 187.24 555.87 187.56C555.53 188.03 555.16 188.49 554.79 188.94C554.19 189.7 553.56 190.47 552.92 191.22C552.9 191.24 552.89 191.26 552.87 191.27C549.557 195.163 545.968 198.812 542.13 202.19C542.06 202.25 542.01 202.31 541.94 202.36C541.4 202.83 540.86 203.3 540.3 203.76C540.07 203.95 539.84 204.14 539.61 204.33C539.23 204.65 538.84 204.97 538.46 205.26C538.415 205.306 538.365 205.346 538.31 205.38C537.97 205.66 537.64 205.92 537.3 206.18C536.89 206.51 536.48 206.82 536.06 207.13C534.08 208.63 532.047 210.047 529.96 211.38C529.65 211.59 529.32 211.8 529 212C528.81 212.12 528.62 212.24 528.44 212.34C527.68 212.81 526.92 213.27 526.16 213.71C525.4 214.16 524.62 214.59 523.85 215.01C522.2 215.91 520.57 216.85 518.98 217.83C518.18 218.33 517.38 218.83 516.59 219.34C513.45 221.38 510.427 223.563 507.52 225.89C504.614 228.218 501.827 230.691 499.17 233.3C498.84 233.62 498.51 233.95 498.18 234.29C497.52 234.94 496.88 235.6 496.27 236.26C495.29 237.27 494.35 238.31 493.42 239.36C488.516 244.924 484.175 250.96 480.46 257.38C478.595 260.585 476.899 263.887 475.38 267.27C474.23 269.8 473.18 272.39 472.23 275.01C471.6 276.76 471.01 278.527 470.46 280.31C470.19 281.2 469.93 282.1 469.68 283C468.83 286.05 468.12 289.13 467.54 292.22C467.07 294.7 466.69 297.183 466.4 299.67C466.25 300.92 466.13 302.17 466.02 303.41C465.763 306.458 465.631 309.508 465.626 312.562C465.608 321.723 466.721 330.852 468.94 339.74C469.43 341.7 469.974 343.65 470.57 345.59C470.87 346.56 471.19 347.52 471.51 348.48C472.32 350.88 473.217 353.257 474.2 355.61C474.79 357.02 475.41 358.42 476.06 359.81C480.191 368.647 485.463 376.904 491.74 384.37C492.77 385.6 493.834 386.81 494.93 388C494.94 388 494.93 388.01 494.93 388.01C497.652 390.978 500.532 393.795 503.56 396.45H503.57C504.78 397.52 506.01 398.557 507.26 399.56C507.27 399.55 507.27 399.56 507.27 399.56C508.53 400.58 509.8 401.56 511.1 402.51C511.75 402.98 512.41 403.45 513.08 403.92C514.39 404.85 515.727 405.747 517.09 406.61H517.1C518.46 407.49 519.84 408.33 521.24 409.13C524.05 410.74 526.93 412.25 529.89 413.62L530.39 413.85L530.9 413.62C535.646 411.484 540.539 409.69 545.54 408.25C546.64 407.93 547.75 407.64 548.85 407.36C551.63 406.67 554.43 406.09 557.25 405.62C554.503 406.998 551.85 408.558 549.31 410.29C547.34 411.62 545.4 413.07 543.45 414.67C542.8 415.2 542.15 415.75 541.5 416.31L539.88 417.71L541.91 418.38C542.65 418.62 543.39 418.86 544.13 419.08C545.14 419.4 546.14 419.69 547.12 419.96C549.26 420.56 551.414 421.09 553.58 421.55C554.11 421.66 554.63 421.77 555.16 421.88C556.19 422.08 557.23 422.28 558.27 422.46C558.313 422.471 558.356 422.477 558.4 422.48C559.48 422.66 560.57 422.83 561.65 422.98C563.66 423.27 565.67 423.5 567.68 423.67C567.9 423.7 568.12 423.71 568.35 423.72C568.84 423.76 569.32 423.8 569.81 423.83C570.89 423.9 571.98 423.95 573.07 423.99C573.15 423.99 573.22 424 573.3 424C573.85 424.02 574.4 424.04 574.95 424.05C574.95 424.05 574.95 424.06 574.96 424.05C575.51 424.06 576.06 424.07 576.61 424.07H579.65C580.22 424.07 580.79 424.08 581.37 424.08C582.17 424.08 582.98 424.09 583.78 424.1C583.99 424.1 584.21 424.11 584.43 424.11C585.71 424.13 586.99 424.16 588.27 424.19C588.35 424.19 588.43 424.2 588.51 424.2C589.79 424.24 591.07 424.28 592.35 424.34C592.63 424.35 592.91 424.36 593.2 424.38C594.43 424.43 595.66 424.49 596.89 424.56C597.24 424.58 597.6 424.61 597.96 424.63C598.89 424.68 599.83 424.74 600.76 424.81C601.31 424.84 601.85 424.88 602.4 424.93C604.62 425.1 606.83 425.29 609.05 425.51C609.79 425.57 610.53 425.65 611.27 425.73C613.25 425.94 615.237 426.17 617.23 426.42C618.12 426.52 619.01 426.64 619.9 426.76C620 426.77 620.1 426.78 620.2 426.8C621.3 426.95 622.39 427.1 623.49 427.26C624.21 427.36 624.93 427.47 625.65 427.58C626.39 427.69 627.13 427.8 627.87 427.93C628.27 427.99 628.67 428.06 629.08 428.13C630.04 428.28 631.01 428.44 631.98 428.62C632.068 428.628 632.154 428.642 632.24 428.66C634.3 429.02 636.37 429.4 638.43 429.81C639.64 430.04 640.84 430.28 642.04 430.53C642.98 430.72 643.92 430.92 644.86 431.12C645.02 431.15 645.18 431.19 645.34 431.23C645.376 431.241 645.413 431.247 645.45 431.25C646.87 431.56 648.3 431.88 649.72 432.22C654.65 433.36 659.574 434.627 664.49 436.02C665.62 436.33 666.75 436.66 667.88 436.99C668.36 437.13 668.83 437.27 669.3 437.41C670.28 437.7 671.25 437.99 672.23 438.3C673.09 438.56 673.96 438.83 674.82 439.11C675.36 439.28 675.9 439.45 676.44 439.63C677.28 439.89 678.12 440.16 678.95 440.45C679.66 440.67 680.36 440.9 681.06 441.15C682.06 441.48 683.07 441.82 684.07 442.18C684.36 442.28 684.66 442.38 684.95 442.49C686.17 442.91 687.39 443.34 688.61 443.79C689.8 444.22 690.99 444.66 692.17 445.1C692.99 445.41 693.81 445.71 694.62 446.03C695.53 446.38 696.44 446.73 697.34 447.09C698.64 447.6 699.95 448.12 701.25 448.65C702.45 449.13 703.64 449.62 704.84 450.13C705.06 450.22 705.29 450.31 705.51 450.41C706.55 450.84 707.59 451.29 708.62 451.74C709.29 452.02 709.95 452.31 710.61 452.6C713.49 453.86 716.367 455.163 719.24 456.51H719.25C721.05 457.36 722.88 458.17 724.72 458.94C725.15 459.12 725.58 459.3 726.02 459.47C726.75 459.78 727.49 460.07 728.23 460.37C728.71 460.56 729.19 460.75 729.68 460.93C730.39 461.21 731.11 461.48 731.83 461.74C732.59 462.02 733.34 462.3 734.11 462.56C734.38 462.66 734.65 462.75 734.93 462.85C735.82 463.15 736.71 463.45 737.61 463.74C737.7 463.77 737.79 463.8 737.89 463.83C738.83 464.13 739.77 464.43 740.72 464.71C740.796 464.738 740.872 464.761 740.95 464.78C741.97 465.09 743.01 465.39 744.04 465.68C745.56 466.1 747.09 466.5 748.62 466.87C748.9 466.94 749.18 467.01 749.46 467.07C750.28 467.27 751.09 467.46 751.91 467.64C752.78 467.84 753.66 468.02 754.53 468.2C755.41 468.38 756.29 468.56 757.16 468.72C757.63 468.81 758.1 468.9 758.56 468.98L759.79 469.19C760.64 469.34 761.49 469.47 762.35 469.61C762.374 469.609 762.398 469.612 762.42 469.62C763.39 469.77 764.35 469.91 765.32 470.03C766.25 470.16 767.18 470.27 768.11 470.38C768.3 470.4 768.5 470.42 768.7 470.44C769.47 470.53 770.24 470.62 771.01 470.69C771.23 470.71 771.45 470.73 771.67 470.75C772.43 470.82 773.19 470.89 773.95 470.94C774.103 470.96 774.256 470.97 774.41 470.97C775.09 471.03 775.77 471.08 776.45 471.11C776.93 471.15 777.4 471.17 777.88 471.2C778.13 471.21 778.37 471.22 778.62 471.23C779.28 471.27 779.94 471.29 780.61 471.31C781.42 471.34 782.23 471.36 783.03 471.38C784 471.4 784.98 471.41 785.95 471.41H785.97C786.92 471.41 787.88 471.4 788.83 471.38H789.19L790.24 471.35C790.78 471.34 791.32 471.32 791.85 471.3C792.87 471.26 793.88 471.21 794.89 471.15C795.29 471.13 795.7 471.1 796.1 471.08C796.28 471.07 796.47 471.05 796.65 471.04C797.28 471 797.9 470.96 798.53 470.91C799.18 470.86 799.841 470.8 800.491 470.73C801.331 470.65 802.17 470.56 803.01 470.47C803.67 470.4 804.33 470.32 804.98 470.24C805.068 470.232 805.155 470.219 805.241 470.2C805.871 470.13 806.5 470.05 807.12 469.96C807.86 469.86 808.59 469.75 809.32 469.64C809.4 469.63 809.471 469.62 809.551 469.61C810.811 469.41 812.08 469.21 813.35 468.98C814.68 468.74 816.01 468.48 817.331 468.21C817.821 468.11 818.301 468 818.791 467.9C819.061 467.84 819.341 467.79 819.601 467.73C820.011 467.64 820.411 467.55 820.811 467.45C820.881 467.44 820.961 467.42 821.031 467.41C821.591 467.29 822.141 467.15 822.701 467.01C823.821 466.74 824.921 466.46 826.021 466.16C826.511 466.04 827.001 465.91 827.47 465.78C827.61 465.74 827.75 465.7 827.88 465.66C829.91 465.09 831.924 464.487 833.921 463.85C834.801 463.57 835.67 463.28 836.54 462.97C838.41 462.33 840.264 461.657 842.1 460.95C842.591 460.77 843.081 460.57 843.571 460.38C844.291 460.09 845.011 459.8 845.72 459.51C846.36 459.24 847 458.97 847.651 458.69C847.97 458.56 848.291 458.42 848.611 458.28C849.571 457.86 850.531 457.43 851.481 457C852.121 456.7 852.751 456.41 853.381 456.11C854.381 455.63 855.371 455.14 856.361 454.65C856.611 454.52 856.851 454.39 857.091 454.27C857.721 453.95 858.351 453.62 858.991 453.3C860.001 452.76 861.011 452.22 862.011 451.66C862.351 451.48 862.68 451.29 863.021 451.1C864.121 450.48 865.211 449.85 866.291 449.21C868.68 447.78 871.037 446.287 873.361 444.73C873.941 444.35 874.52 443.95 875.091 443.56C876.17 442.82 877.23 442.06 878.291 441.3C878.401 441.22 878.501 441.14 878.611 441.07C879.141 440.68 879.67 440.29 880.2 439.89C881.301 439.06 882.391 438.22 883.48 437.36C883.5 437.35 883.531 437.32 883.561 437.3C884.051 436.91 884.541 436.52 885.021 436.13C886.511 434.92 887.981 433.69 889.42 432.42C890.131 431.81 890.831 431.18 891.521 430.55C892.041 430.08 892.561 429.61 893.071 429.13C894.1 428.16 895.11 427.2 896.11 426.22C896.61 425.74 897.1 425.24 897.6 424.74C898.091 424.24 898.591 423.74 899.081 423.23C899.25 423.06 899.42 422.88 899.591 422.7C900.091 422.17 900.591 421.63 901.091 421.1C901.52 420.64 901.94 420.16 902.37 419.68C903.091 418.88 903.821 418.08 904.53 417.27C904.568 417.225 904.608 417.181 904.65 417.14C904.69 417.09 904.73 417.05 904.76 417.01H904.75C919.286 400.202 930.086 380.498 936.436 359.203C942.786 337.908 944.541 315.507 941.584 293.483C938.628 271.458 931.028 250.313 919.288 231.446C907.547 212.579 891.933 196.421 873.48 184.04Z" fill="#1DAF68"/>
<g opacity="0.15">
<path d="M671.072 66.0322C673.065 73.1926 676.064 80.0341 679.979 86.3521C673.425 80.7217 667.569 74.3264 662.537 67.3029C665.364 66.7682 668.209 66.3446 671.072 66.0322Z" fill="black"/>
<path d="M573.495 176.769C566.093 180.809 559.173 185.673 552.866 191.269C563.515 178.677 571.298 163.92 575.675 148.02C575.728 147.829 575.781 147.637 575.833 147.446L575.982 146.904C581.242 127.928 591.448 110.689 605.556 96.9508L606.665 95.8701L607.447 97.2057C611.772 104.559 616.947 111.379 622.867 117.522C613.796 143.116 596.147 164.417 573.495 176.769Z" fill="black"/>
<path d="M625.623 108.654L625.474 109.195C625.423 109.386 625.369 109.579 625.316 109.77C625.024 110.822 624.714 111.866 624.393 112.906C621.23 104.713 619.008 96.1858 617.772 87.4902L617.655 86.7523L618.262 86.3187C625.871 80.8508 634.136 76.358 642.863 72.9453C635.028 83.7218 629.189 95.8161 625.623 108.654Z" fill="black"/>
<path d="M523.853 215.019C530.403 211.434 536.534 207.131 542.132 202.188C530.95 215.207 522.935 230.638 518.714 247.273C514.493 263.907 514.182 281.293 517.804 298.067C521.427 314.842 528.884 330.551 539.592 343.961C550.301 357.372 563.969 368.121 579.526 375.365L580.032 375.599L580.537 375.371C588.94 371.575 597.799 368.884 606.895 367.367C601.218 370.259 595.926 373.851 591.144 378.061L589.526 379.459L591.555 380.129C593.307 380.709 595.06 381.242 596.763 381.715C606.771 384.502 617.117 385.887 627.506 385.828C674.708 385.526 722.276 396.438 768.888 418.262C776.882 421.999 785.173 425.063 793.676 427.423C830.731 437.74 870.289 434.029 904.779 417C885.334 439.489 859.908 455.999 831.455 464.615C803.002 473.231 772.688 473.598 744.035 465.673C735.532 463.314 727.24 460.249 719.247 456.512C672.634 434.688 625.066 423.776 577.865 424.078C567.476 424.137 557.13 422.752 547.122 419.965C545.418 419.492 543.666 418.959 541.914 418.379L539.884 417.709L541.502 416.311C546.285 412.101 551.576 408.509 557.253 405.617C548.158 407.134 539.298 409.825 530.895 413.621L530.391 413.849L529.885 413.616C511.203 404.92 495.304 391.204 483.964 373.998C472.623 356.792 466.286 336.774 465.661 316.176C465.035 295.579 470.145 275.213 480.421 257.351C490.696 239.488 505.733 224.833 523.853 215.019L523.853 215.019Z" fill="black"/>
</g>
</g>
<defs>
<clipPath id="clip0_301_1084">
<rect width="943.001" height="795.629" fill="white"/>
</clipPath>
</defs>
</svg>
